# xmcd CD database file
#
# Track frame offsets:
#	183
#	9525
#	17510
#	27358
#	38403
#	49045
#	58758
#	70070
#	80378
#	89833
#	101900
#	113638
#
# Disc length: 1683 seconds
#
# Revision: 0
# Processed by: cddbd v1.5.2PL0 Copyright (c) Steve Scherf et al.
# Submitted via: CDex 1.51
#
DISCID=9106910c
DTITLE=The Oak Ridge Boys - At Their Best
DYEAR=1968
DGENRE=Country
TTITLE0=01 I Love Him So
TTITLE1=02 Hear Him Call
TTITLE2=03 Lord I Need You (Again Today)
TTITLE3=04 No More
TTITLE4=05 What Can I Do
TTITLE5=06 The Hour Of Prayer
TTITLE6=07 I Will Live For Jesus
TTITLE7=08 Preachin´Man
TTITLE8=09 I´LL Be Welcome Over There
TTITLE9=10 The Lights Of Home
TTITLE10=11 Home Sweet Home
TTITLE11=12 How Great Thou Art
EXTD=YEAR: 1968
EXTT0=
EXTT1=
EXTT2=
EXTT3=
EXTT4=
EXTT5=
EXTT6=
EXTT7=
EXTT8=
EXTT9=
EXTT10=
EXTT11=
PLAYORDER=
